<svg fill="none" height="82" viewBox="0 0 124 82" width="124" xmlns="http://www.w3.org/2000/svg" xmlns:xlink="http://www.w3.org/1999/xlink"><clipPath id="a"><path d="m0 0h124v82h-124z"/></clipPath><mask id="b" height="82" maskUnits="userSpaceOnUse" width="124" x="0" y="0"><path d="m124 0h-124v82h124z" fill="#fff"/></mask><g clip-path="url(#a)"><g mask="url(#b)"><path d="m79.3235 29.9684c2.1883-3.0854 3.4738-6.8463 3.4738-10.9084 0-.3286-.0091-.6664-.0273-.9859-.0456-2.1269-.4194-4.2355-1.2035-6.2072-.2918-.6755-.62-1.3328-.9939-1.98089-1.2217-2.13604-2.8811-4.10776-4.8141-5.6961-2.5164-2.07213-5.507-3.514412-8.607-3.879546-.5289-.082155-1.0486-.146054-1.5683-.191695-.6564-.0821556-1.3311-.118669-2.0058-.118669-6.4098.00912835-12.09 3.1219-15.5821 7.90515-.0091 0-.0274 0-.0365 0-.9756 1.31449-1.7506 2.78415-2.325 4.32685-.082.2008-.155.4108-.2279.6116-.6747 1.9443-1.0485 4.0347-1.0485 6.2073 0 1.1136.1002 2.1908.2917 3.2588.1368.8581.3191 1.7161.5744 2.5468.0912.2465.1915.4929.3009.7394 2.6988 7.3027 9.765 12.5058 18.0621 12.515 6.51-.0092 12.2632-3.2223 15.737-8.1334 0 0 0-.0091.0091-.0182m-33.8994-13.6926c.0183-.1278.0456-.2464.073-.3651l12.71.0182c4.8232-.1369 6.8017 1.1959 8.3517 2.7294.8662-3.6148 2.015-7.6587 5.7624-9.39305 1.7323-.56596 4.7138-1.31448 6.5829-.31036.4103.6116.7841 1.25061 1.1215 1.91691-4.2124 0-8.9353-.0182-11.0323 4.1717-1.2948 2.0082-1.7324 4.3268-2.2977 6.6363-4.9144-6.3533-14.2873-2.775-21.3535-3.7883-.0183-.5111-.0091-1.1136.0729-1.6248m18.1533-15.463433c1.1944 0 2.3614.118668 3.492.328623.8206.21908 1.5409.50206 2.2885 1.05889-3.027 2.60158-4.0391 6.06122-4.6226 9.67602-3.4556-5.34918-10.3941-3.02145-15.8647-3.79736 3.3644-4.409 8.6982-7.266173 14.7159-7.266173m7.4856 34.943333c-.1824.0822-.3556.1461-.5289.2282-2.1517.8672-4.5041 1.3601-6.9658 1.3601-1.2583 0-2.48-.1278-3.6562-.356-.1094-.0274-.2097-.0456-.3191-.073-.155-.0365-.31-.073-.4742-.1095-2.6076-.6847-5.0967-1.9261-7.285-3.6422-2.1791-1.7892-3.9297-4.0622-5.1058-6.6637-.0456-.3469-.0274-.7029.0729-1.0498 6.7744.4382 14.57-1.5792 19.4571 3.6148.8844-1.0041.4467-2.5924 1.012-3.8887.228-.8306.5744-1.6248 1.0485-2.3642 1.4224-2.1908 3.8295-3.8157 6.3095-4.1351 2.3432-.2739 5.2608-.5843 7.3397-.3013.0091.2374.0273.4656.0273.7029-.0182 7.4396-4.495 13.8386-10.932 16.6866" fill="#a39161"/><g clip-rule="evenodd" fill="#004f39" fill-rule="evenodd"><path d="m86.6359 45.0941c-1.0303-.9037-2.1974-1.2597-3.5833-1.2689-3.1182 0-5.6985 2.0904-5.7076 5.3127 0 3.0489 2.48 5.121 5.4432 5.1302 3.0362 0 5.6074-2.2365 5.6074-5.331 0-1.4514-.6656-2.8754-1.7597-3.843zm-3.7474 8.0877c-2.4161 0-3.6835-2.3369-3.6926-4.4455 0-2.0904 1.4132-3.8248 3.6014-3.8339 2.5256 0 3.7292 2.2821 3.7383 4.5003 0 2.0995-1.4862 3.7791-3.6471 3.7791z"/><path d="m94.1032 45.3497v-1.3054l-.2097.073h-2.8173v-1.6613c0-.6664.0638-1.1958.3373-1.5792.2827-.3926.7568-.5569 1.4406-.5569.4285 0 .7659.1187 1.1033.3195l1.1761-1.3053-1.1032-.1004c-1.4497 0-2.8447.2647-3.8203 1.3601-.7476.8581-.7659 1.4058-.775 2.4555v.3286.6025l-.9209 1.205h.9209v6.5267.6116c.0091.5842-.0638 1.1776-.5379 1.6431h2.8173c-.6018-.6024-.6565-1.5427-.6565-2.3551 0-.2373 0-.4655 0-.6755v-5.7417h2.3342c.237 0 .4832.0274.6929.1552"/><path d="m102.154 53.1909c-2.097 0-2.3158-1.7344-2.3158-2.7476 0-.2374.0091-.4473.0091-.5934v-4.6554h1.5317.283c.392 0 .839.0091 1.194.2373v-1.3784c-.246.0731-.501.0639-.72.0639h-2.2887v-3.3136h-.5014c-.0183 1.9444-.6383 3.551-2.6441 3.9617v.4382h1.5135v4.8289.566c.0182 1.3144.1915 3.6696 2.9537 3.6696.201 0 .402-.0366.593-.0822l.766-1.0315c-.119.0274-.237.0365-.365.0365"/><path d="m108.263 44.9024c1.003 0 1.714.3834 2.124 1.0223.42.6299.566 1.4606.566 2.3917v3.3866.7029c.009.5659-.064 1.1319-.52 1.5701h2.681c-.475-.4565-.548-1.0498-.538-1.6523 0-.2008 0-.4199 0-.6298v-4.053c-.037-2.1269-.648-3.7883-3.611-3.8157-1.049 0-2.516.4473-3.109 1.3236l-.356.5112v-6.1525c-.374.21-.829.2008-1.231.2008h-.939c.474.4565.547 1.0498.538 1.6523v.6298 9.7126.6299c0 .5933-.064 1.1958-.538 1.6522h2.699c-.474-.4564-.547-1.0589-.538-1.6522 0-.21 0-.42 0-.6299v-3.5235c0-1.0042.146-1.8166.584-2.4008.437-.5842 1.158-.8763 2.17-.8763"/><path d="m119.004 43.8252c-3.228.0092-5.362 2.1543-5.371 5.1484 0 2.9759 2.489 5.2762 6.191 5.2945 1.003 0 2.024-.1552 2.927-.5204l.738-1.3966c-.957.566-2.06.8307-3.2.8307-2.598.0091-4.613-1.6705-4.65-4.4912v-.2008h8.179c-.019-2.6837-1.961-4.6554-4.814-4.6646zm-3.31 3.77.045-.2373c.274-1.497 1.496-2.4647 3.064-2.4555 1.659-.0183 2.826.8215 3.063 2.4646l.037.2282z"/><path d="m75.4029 50.8358-4.7776-7.467 5.6165-6.2347v-.1095h-8.37v.1095c.6564.2922 1.3403 1.0133 1.3403 1.844s-.62 1.3053-1.1215 1.8804l-2.8994 3.341v-14.934h-.1094c-.7203.4017-1.5227.5751-2.3889.5751h-5.0329v.1095c1.3768 1.1593 1.2309 2.2091 1.2673 3.8796v15.8468c-.0364 1.6979.1095 2.7568-1.2673 3.9161v.1095h8.7985v-.1095c-1.3403-1.1593-1.2673-2.2091-1.2673-3.9161v-3.697l3.3279 5.5135c.7568 1.3054 1.4133 2.3917 3.0818 2.3917 2.0697 0 4.1667-.1826 6.2273-.1826v-.1095c-1.0485-.6116-1.7414-1.6614-2.4253-2.7568zm-60.9879-10.6984c2.17-.7212 3.8385-2.1726 3.8385-4.6007 0-1.8896-.9391-3.3319-2.4253-4.4912-1.5226-1.1958-3.1091-1.1958-5.0329-1.1958h-10.7953v.1096c1.76882 1.0862 1.52265 3.1584 1.52265 5.0388v13.5191c0 1.9261.25529 3.9526-1.52265 5.0754v.1095h10.6038c2.5712 0 4.495-.0365 6.4462-1.7435 1.6959-1.4879 2.5712-3.3684 2.5712-5.6231 0-3.1493-2.0971-5.76-5.2153-6.1981m-6.1909-6.7002c.36471-.1461.69294-.2191 1.04853-.2191 1.55907 0 2.27937 1.3784 2.27937 2.7933 0 1.5609-.9026 3.1219-2.64408 3.1219-.25529 0-.43764-.0731-.69294-.1461v-5.55zm1.59559 16.8509c-.64735 0-1.04853-.073-1.59559-.4382v-7.613h.86618c2.75352 0 4.02092 1.2323 4.02092 3.9891 0 2.0995-.9392 4.0621-3.29151 4.0621zm46.53651-.5751v-5.9791c0-1.926.1094-3.5509-1.2309-5.1118-1.3403-1.561-3.1547-2.063-5.1059-2.063-1.8509 0-3.4009.5842-4.4585 1.9169v-1.99h-.1094c-.9392.4017-1.705.5477-2.5712.5477h-4.8506v.1096c1.3768 1.1593 1.2673 2.209 1.2673 3.8795v7.2753s0 .073-.0091.1096c0 0 0 .0821-.0182.1917 0 .0547-.0182.1004-.0274.146-.0911.5112-.392 1.4514-1.3585 1.4514s-1.3221-.9493-1.4223-1.4331c-.0183-.0822-.0274-.1643-.0365-.2465-.0821-.6299-.0638-1.3327-.0638-2.0904v-2.9028c0-2.0995-.1824-4.2082-1.9968-5.5774-1.4132-1.0498-3.3279-1.3784-5.0329-1.3784-1.5592 0-3.0818.1095-4.5589.5112l-1.705 4.1351c1.3403-.6846 3.0818-1.1958 4.5589-1.1958.9026 0 2.3158.4016 2.3158 1.5244 0 3.0489-9.9564.8307-9.9564 7.5401 0 1.6704.9391 3.3774 2.3888 4.2446 1.0485.6573 2.6441.8764 3.875.8764l1.8509-.1096 1.5591-3.1493c-.2553.0366-.465.0731-.7203.0731-1.3038 0-2.2065-1.0863-2.2065-2.3551 0-1.1959 1.158-1.7436 2.0697-2.1726l1.158-.5477v1.1958c0 2.1361-.1459 3.8065 1.5591 5.404 1.3129 1.2141 2.9268 1.6249 4.6865 1.6614h.0638.1732s1.0212-.0366 1.4497-.1096c.0912-.0182.2553-.0456.465-.0821.2371-.0548 2.4253-.6208 4.65-.6208 1.2218 0 2.7627.1826 3.8385.3469h.0092v-.1095c-1.3768-1.1228-1.2674-2.1726-1.2674-3.8704v-6.1252c0-.7941-.0365-1.8165.5106-2.5011.3647-.5112 1.0121-.8307 1.6321-.8307.7567 0 1.4861.3651 1.8782 1.0132.5106.6847.5106 1.5245.5106 2.3186v6.1252c0 1.6978.1094 2.7567-1.2674 3.8704v.1095h8.7986v-.1095c-1.3768-1.1228-1.2674-2.1726-1.2674-3.8704"/><path d="m35.1029 61.2695c2.8265.1095 3.7292 2.136 3.7292 4.7102 0 2.4282-1.2674 4.3543-3.5103 5.2945.4376.073.8661.073 1.3038.073 4.5315 0 8.8715-1.99 8.8715-7.1384 0-2.4646-1.2309-4.5733-3.4374-5.6504-1.8144-.9037-4.4494-.8763-6.4826-.8763h-8.5433v.1095c1.778 1.1228 1.5227 3.1949 1.5227 5.0754v13.4825c0 1.8896.2553 3.9526-1.5227 5.0754v.1096h9.6647v-.1096c-1.5591-1.4514-1.5956-3.0762-1.5956-5.1484zm41.5036 15.3995c-1.2309.9768-3.1183 1.707-4.7868 1.707-1.1853 0-2.4982-.3286-3.2915-1.2688-1.0485-1.1593-1.5226-3.0489-1.5226-4.5277 0-1.1958.1459-2.5742.9391-3.5874.6474-.8398 1.6959-1.2688 2.7535-1.2688 1.4497 0 2.6077.4655 3.6927 1.1958h.1094v-4.1717c-1.4132-.1095-2.8629-.3651-4.2671-.3651-5.58 0-10.2117 3.0854-10.2117 9.0644 0 1.4241.3282 2.702.8844 3.8157-.2006.3925-.538.7394-1.1306.7394-1.0941 0-1.3768-1.1319-1.4406-1.5336 0-.0365-.0091-.0639-.0182-.1004 0-.0274 0-.0548 0-.0548-.073-.6207-.0639-1.3236-.0639-2.0721h-.0182v-2.8937c0-2.0995-.1823-4.2082-1.9968-5.5774-1.4132-1.0498-3.3279-1.3784-5.0329-1.3784-1.2673 0-2.5073.0822-3.7291.3286-.0547.6116-.1824 1.4879-.4741 2.2547-.2006.5386-.4833 1.0589-.7386 1.4971 1.0577-.3834 2.2065-.639 3.2368-.639.9027 0 2.3159.4016 2.3159 1.5244 0 3.0398-9.9565.8307-9.9565 7.54 0 1.6705.9483 3.3684 2.3888 4.2356 1.0486.6572 2.6442.8672 3.875.8672l1.8418-.1095 1.5591-3.1493c-.2553.0365-.4741.073-.7294.073-1.3038 0-2.2065-1.0863-2.2065-2.3551 0-1.1958 1.158-1.7344 2.0606-2.1726l1.158-.5477v1.1958c0 2.1361-.1459 3.8066 1.5591 5.404 1.3768 1.2598 3.0726 1.6614 4.9235 1.6614h.1368c.2006-.0183.6382-.0365 1.1853-.1004h.1276v-.0183h.0091c.228-.0274 1.9603-.2921 3.6015-1.7435 1.6321 1.1958 3.7291 1.8622 5.963 1.8622 2.2338 0 4.3035-.429 6.2273-1.3784l1.158-3.9526h-.1095zm3.9114-12.5423c1.9512 0 3.5468-1.5245 3.5468-3.5144 0-1.8531-1.5226-3.4049-3.4009-3.4049-1.9876 0-3.4373 1.634-3.4373 3.5874 0 1.7435 1.5226 3.341 3.3006 3.341m3.4738 13.4096v-13.2362h-.1094c-.693.4382-1.4862.5478-2.4618.5478h-4.9235v.1095c1.3403 1.1228 1.2309 2.1725 1.2309 3.8795v8.6994c0 1.6704.1094 2.7202-1.2674 3.8795v.1096h8.7985v-.1096c-1.3767-1.1593-1.2673-2.2091-1.2673-3.8795zm18.6091-13.4187c1.951 0 3.547-1.5245 3.547-3.5144 0-1.8531-1.523-3.4049-3.401-3.4049-1.988 0-3.4375 1.634-3.4375 3.5874 0 1.7435 1.5225 3.341 3.2915 3.341m3.474 13.4096v-13.2362h-.11c-.683.4382-1.486.5478-2.461.5478h-4.9239v.1095c1.3403 1.1228 1.2309 2.1725 1.2309 3.8795v8.6994c0 1.6704.1094 2.7202-1.2582 3.8795v.1096h8.7982v-.1096c-1.376-1.1593-1.267-2.2091-1.267-3.8795m17.798-.8764c-1.231.9768-3.119 1.707-4.778 1.707-1.194 0-2.498-.3286-3.292-1.2688-1.048-1.1593-1.522-3.0489-1.522-4.5277 0-1.1958.146-2.5742.939-3.5874.647-.8398 1.705-1.2688 2.753-1.2688 1.45 0 2.608.4655 3.693 1.1958h.11v-4.1717c-1.414-.1095-2.863-.3651-4.277-.3651-5.58 0-10.211 3.0854-10.211 9.0644 0 5.2488 4.312 8.5533 9.3 8.5533 2.133 0 4.312-.429 6.227-1.3784l1.158-3.9526h-.11zm-28.7939-19.5712c-2.0606 0-3.948.2922-5.653 1.707-1.8053 1.488-2.0606 3.2224-2.0606 5.4679v.4656l-2.2247 3.487h2.2247v9.2744c-.0364 1.7435.1094 2.7933-1.2309 3.9161v.1095h8.7621v-.1095c-1.3038-1.1228-1.2309-2.1726-1.2673-3.9161v-9.2744h1.012c1.3403 0 1.8874-.146 2.7627.7211h.1094v-4.2081h-3.8841v-.7577c0-1.5244-.1824-3.3044 1.9238-3.3044.6109 0 1.012.2556 1.4862.6116l.2097-.3287s0-.073 0-.1095c0-1.3236.4194-2.5651 1.1488-3.5418-.9938-.1917-2.0788-.2282-3.3097-.2282"/></g></g></g></svg>